<mxfile host="Electron" modified="2024-01-31T07:23:39.177Z" agent="Mozilla/5.0 (Macintosh; Intel Mac OS X 10_15_7) AppleWebKit/537.36 (KHTML, like Gecko) draw.io/21.4.0 Chrome/112.0.5615.204 Electron/24.5.1 Safari/537.36" etag="nVrhsGD8uVmEMZsHguNa" version="21.4.0" type="device" pages="5">
  <diagram name="Page-1" id="FtU3zc0p4f4Bl0MTc2zn">
    <mxGraphModel dx="1242" dy="828" grid="1" gridSize="10" guides="1" tooltips="1" connect="1" arrows="1" fold="1" page="1" pageScale="1" pageWidth="827" pageHeight="1169" math="0" shadow="0">
      <root>
        <mxCell id="0" />
        <mxCell id="1" parent="0" />
        <mxCell id="2wR21XXV7mRaW6uMy-59-1" value="&lt;div style=&quot;color: rgb(0, 0, 0); background-color: rgb(255, 255, 255); font-family: Menlo, Monaco, &amp;quot;Courier New&amp;quot;, monospace; font-weight: normal; font-size: 29px; line-height: 44px;&quot;&gt;&lt;div&gt;&lt;span style=&quot;color: #0000ff;&quot;&gt;function&lt;/span&gt;&lt;span style=&quot;color: #000000;&quot;&gt; &lt;/span&gt;&lt;span style=&quot;color: #795e26;&quot;&gt;function1&lt;/span&gt;&lt;span style=&quot;color: #000000;&quot;&gt;() {&lt;/span&gt;&lt;/div&gt;&lt;div&gt;&lt;span style=&quot;color: #000000;&quot;&gt;&lt;/span&gt;&lt;span style=&quot;color: #001080;&quot;&gt;&amp;nbsp; &amp;nbsp; &amp;nbsp;console&lt;/span&gt;&lt;span style=&quot;color: #000000;&quot;&gt;.&lt;/span&gt;&lt;span style=&quot;color: #795e26;&quot;&gt;log&lt;/span&gt;&lt;span style=&quot;color: #000000;&quot;&gt;(&lt;/span&gt;&lt;span style=&quot;color: #a31515;&quot;&gt;&#39;inside function1&#39;&lt;/span&gt;&lt;span style=&quot;color: #000000;&quot;&gt;)&lt;/span&gt;&lt;/div&gt;&lt;div&gt;&lt;span style=&quot;color: #000000;&quot;&gt;      }&lt;/span&gt;&lt;/div&gt;&lt;/div&gt;" style="text;whiteSpace=wrap;html=1;" parent="1" vertex="1">
          <mxGeometry x="70" y="410" width="680" height="150" as="geometry" />
        </mxCell>
        <mxCell id="2wR21XXV7mRaW6uMy-59-2" value="&lt;meta charset=&quot;utf-8&quot;&gt;&lt;div style=&quot;border-color: var(--border-color); color: rgb(0, 0, 0); font-family: Menlo, Monaco, &amp;quot;Courier New&amp;quot;, monospace; font-size: 29px; font-style: normal; font-variant-ligatures: normal; font-variant-caps: normal; font-weight: 400; letter-spacing: normal; orphans: 2; text-align: left; text-indent: 0px; text-transform: none; widows: 2; word-spacing: 0px; -webkit-text-stroke-width: 0px; text-decoration-thickness: initial; text-decoration-style: initial; text-decoration-color: initial;&quot;&gt;&lt;span style=&quot;border-color: var(--border-color); color: rgb(0, 0, 0);&quot;&gt;{&lt;/span&gt;&lt;/div&gt;&lt;div style=&quot;border-color: var(--border-color); color: rgb(0, 0, 0); font-family: Menlo, Monaco, &amp;quot;Courier New&amp;quot;, monospace; font-size: 29px; font-style: normal; font-variant-ligatures: normal; font-variant-caps: normal; font-weight: 400; letter-spacing: normal; orphans: 2; text-align: left; text-indent: 0px; text-transform: none; widows: 2; word-spacing: 0px; -webkit-text-stroke-width: 0px; text-decoration-thickness: initial; text-decoration-style: initial; text-decoration-color: initial;&quot;&gt;&lt;span style=&quot;border-color: var(--border-color); color: rgb(0, 0, 0);&quot;&gt;&lt;/span&gt;&lt;span style=&quot;border-color: var(--border-color); color: rgb(0, 16, 128);&quot;&gt;&amp;nbsp; &amp;nbsp; &amp;nbsp;console&lt;/span&gt;&lt;span style=&quot;border-color: var(--border-color); color: rgb(0, 0, 0);&quot;&gt;.&lt;/span&gt;&lt;span style=&quot;border-color: var(--border-color); color: rgb(121, 94, 38);&quot;&gt;log&lt;/span&gt;&lt;span style=&quot;border-color: var(--border-color); color: rgb(0, 0, 0);&quot;&gt;(&lt;/span&gt;&lt;span style=&quot;border-color: var(--border-color); color: rgb(163, 21, 21);&quot;&gt;&#39;inside function1&#39;&lt;/span&gt;&lt;span style=&quot;border-color: var(--border-color); color: rgb(0, 0, 0);&quot;&gt;)&lt;/span&gt;&lt;/div&gt;&lt;div style=&quot;border-color: var(--border-color); color: rgb(0, 0, 0); font-family: Menlo, Monaco, &amp;quot;Courier New&amp;quot;, monospace; font-size: 29px; font-style: normal; font-variant-ligatures: normal; font-variant-caps: normal; font-weight: 400; letter-spacing: normal; orphans: 2; text-align: left; text-indent: 0px; text-transform: none; widows: 2; word-spacing: 0px; -webkit-text-stroke-width: 0px; text-decoration-thickness: initial; text-decoration-style: initial; text-decoration-color: initial;&quot;&gt;&lt;span style=&quot;border-color: var(--border-color); color: rgb(0, 0, 0);&quot;&gt;}&lt;/span&gt;&lt;/div&gt;" style="rounded=0;whiteSpace=wrap;html=1;" parent="1" vertex="1">
          <mxGeometry x="260" y="650" width="676" height="160" as="geometry" />
        </mxCell>
        <mxCell id="2wR21XXV7mRaW6uMy-59-3" value="0x10000" style="text;html=1;strokeColor=none;fillColor=none;align=left;verticalAlign=middle;whiteSpace=wrap;rounded=0;fontStyle=1;fontSize=21;" parent="1" vertex="1">
          <mxGeometry x="260" y="610" width="120" height="30" as="geometry" />
        </mxCell>
        <mxCell id="2wR21XXV7mRaW6uMy-59-6" value="object of type Function" style="text;html=1;strokeColor=none;fillColor=none;align=left;verticalAlign=middle;whiteSpace=wrap;rounded=0;fontStyle=1;fontSize=21;" parent="1" vertex="1">
          <mxGeometry x="260" y="820" width="250" height="30" as="geometry" />
        </mxCell>
        <mxCell id="2wR21XXV7mRaW6uMy-59-10" style="edgeStyle=orthogonalEdgeStyle;rounded=0;orthogonalLoop=1;jettySize=auto;html=1;entryX=0;entryY=0.5;entryDx=0;entryDy=0;" parent="1" source="2wR21XXV7mRaW6uMy-59-7" target="2wR21XXV7mRaW6uMy-59-2" edge="1">
          <mxGeometry relative="1" as="geometry" />
        </mxCell>
        <mxCell id="2wR21XXV7mRaW6uMy-59-7" value="0x10000" style="rounded=0;whiteSpace=wrap;html=1;fillColor=#d5e8d4;strokeColor=#82b366;fontStyle=1;fontSize=16;" parent="1" vertex="1">
          <mxGeometry x="70" y="700" width="120" height="60" as="geometry" />
        </mxCell>
        <mxCell id="2wR21XXV7mRaW6uMy-59-8" value="0x11000" style="text;html=1;strokeColor=none;fillColor=none;align=left;verticalAlign=middle;whiteSpace=wrap;rounded=0;fontStyle=1;fontSize=21;" parent="1" vertex="1">
          <mxGeometry x="70" y="660" width="120" height="30" as="geometry" />
        </mxCell>
        <mxCell id="2wR21XXV7mRaW6uMy-59-11" value="reference&lt;br&gt;(function1)" style="text;html=1;strokeColor=none;fillColor=none;align=left;verticalAlign=middle;whiteSpace=wrap;rounded=0;fontStyle=1;fontSize=21;" parent="1" vertex="1">
          <mxGeometry x="70" y="770" width="130" height="50" as="geometry" />
        </mxCell>
        <mxCell id="2wR21XXV7mRaW6uMy-59-12" value="&lt;div style=&quot;color: rgb(0, 0, 0); background-color: rgb(255, 255, 255); font-family: Menlo, Monaco, &amp;quot;Courier New&amp;quot;, monospace; font-weight: normal; font-size: 29px; line-height: 44px;&quot;&gt;&lt;div&gt;&lt;span style=&quot;color: #0000ff;&quot;&gt;const&lt;/span&gt;&lt;span style=&quot;color: #000000;&quot;&gt; &lt;/span&gt;&lt;span style=&quot;color: #0070c1;&quot;&gt;number&lt;/span&gt;&lt;span style=&quot;color: #000000;&quot;&gt; = &lt;/span&gt;&lt;span style=&quot;color: #098658;&quot;&gt;100&lt;/span&gt;&lt;/div&gt;&lt;/div&gt;" style="text;whiteSpace=wrap;html=1;" parent="1" vertex="1">
          <mxGeometry x="70" y="30" width="350" height="70" as="geometry" />
        </mxCell>
        <mxCell id="2wR21XXV7mRaW6uMy-59-13" value="100" style="rounded=0;whiteSpace=wrap;html=1;fillColor=#fff2cc;strokeColor=#d6b656;fontStyle=1;fontSize=16;" parent="1" vertex="1">
          <mxGeometry x="70" y="150" width="120" height="60" as="geometry" />
        </mxCell>
        <mxCell id="2wR21XXV7mRaW6uMy-59-14" value="0x12000" style="text;html=1;strokeColor=none;fillColor=none;align=left;verticalAlign=middle;whiteSpace=wrap;rounded=0;fontStyle=1;fontSize=21;" parent="1" vertex="1">
          <mxGeometry x="70" y="110" width="120" height="30" as="geometry" />
        </mxCell>
        <mxCell id="2wR21XXV7mRaW6uMy-59-15" value="number" style="text;html=1;strokeColor=none;fillColor=none;align=left;verticalAlign=middle;whiteSpace=wrap;rounded=0;fontStyle=1;fontSize=21;" parent="1" vertex="1">
          <mxGeometry x="70" y="210" width="130" height="40" as="geometry" />
        </mxCell>
        <mxCell id="2wR21XXV7mRaW6uMy-59-16" value="&lt;div style=&quot;color: rgb(0, 0, 0); background-color: rgb(255, 255, 255); font-family: Menlo, Monaco, &amp;quot;Courier New&amp;quot;, monospace; font-weight: normal; font-size: 29px; line-height: 44px;&quot;&gt;&lt;div&gt;&lt;span style=&quot;color: #0000ff;&quot;&gt;const&lt;/span&gt;&lt;span style=&quot;color: #000000;&quot;&gt; &lt;/span&gt;&lt;span style=&quot;color: #795e26;&quot;&gt;function2&lt;/span&gt;&lt;span style=&quot;color: #000000;&quot;&gt; = &lt;/span&gt;&lt;span style=&quot;color: #0000ff;&quot;&gt;function&lt;/span&gt;&lt;span style=&quot;color: #000000;&quot;&gt; () {&lt;/span&gt;&lt;/div&gt;&lt;div&gt;&lt;span style=&quot;color: #000000;&quot;&gt;        &lt;/span&gt;&lt;span style=&quot;color: #001080;&quot;&gt;&lt;span style=&quot;white-space: pre;&quot;&gt;&#x9;&lt;/span&gt;console&lt;/span&gt;&lt;span style=&quot;color: #000000;&quot;&gt;.&lt;/span&gt;&lt;span style=&quot;color: #795e26;&quot;&gt;log&lt;/span&gt;&lt;span style=&quot;color: #000000;&quot;&gt;(&lt;/span&gt;&lt;span style=&quot;color: #a31515;&quot;&gt;`inside function2`&lt;/span&gt;&lt;span style=&quot;color: #000000;&quot;&gt;)&lt;/span&gt;&lt;/div&gt;&lt;div&gt;&lt;span style=&quot;color: #000000;&quot;&gt;      }&lt;/span&gt;&lt;/div&gt;&lt;/div&gt;" style="text;whiteSpace=wrap;html=1;" parent="1" vertex="1">
          <mxGeometry x="80" y="960" width="760" height="140" as="geometry" />
        </mxCell>
        <mxCell id="2wR21XXV7mRaW6uMy-59-17" value="&lt;div style=&quot;border-color: var(--border-color); color: rgb(0, 0, 0); font-family: Menlo, Monaco, &amp;quot;Courier New&amp;quot;, monospace; font-size: 29px; font-style: normal; font-variant-ligatures: normal; font-variant-caps: normal; font-weight: 400; letter-spacing: normal; orphans: 2; text-align: left; text-indent: 0px; text-transform: none; widows: 2; word-spacing: 0px; -webkit-text-stroke-width: 0px; text-decoration-thickness: initial; text-decoration-style: initial; text-decoration-color: initial;&quot;&gt;&lt;span style=&quot;border-color: var(--border-color); color: rgb(0, 0, 0);&quot;&gt;{&lt;/span&gt;&lt;/div&gt;&lt;div style=&quot;border-color: var(--border-color); color: rgb(0, 0, 0); font-family: Menlo, Monaco, &amp;quot;Courier New&amp;quot;, monospace; font-size: 29px; font-style: normal; font-variant-ligatures: normal; font-variant-caps: normal; font-weight: 400; letter-spacing: normal; orphans: 2; text-align: left; text-indent: 0px; text-transform: none; widows: 2; word-spacing: 0px; -webkit-text-stroke-width: 0px; text-decoration-thickness: initial; text-decoration-style: initial; text-decoration-color: initial;&quot;&gt;&lt;span style=&quot;border-color: var(--border-color); color: rgb(0, 0, 0);&quot;&gt;&lt;/span&gt;&lt;span style=&quot;border-color: var(--border-color); color: rgb(0, 16, 128);&quot;&gt;&amp;nbsp; &amp;nbsp; &amp;nbsp;console&lt;/span&gt;&lt;span style=&quot;border-color: var(--border-color); color: rgb(0, 0, 0);&quot;&gt;.&lt;/span&gt;&lt;span style=&quot;border-color: var(--border-color); color: rgb(121, 94, 38);&quot;&gt;log&lt;/span&gt;&lt;span style=&quot;border-color: var(--border-color); color: rgb(0, 0, 0);&quot;&gt;(&lt;/span&gt;&lt;span style=&quot;border-color: var(--border-color); color: rgb(163, 21, 21);&quot;&gt;&#39;inside function2&#39;&lt;/span&gt;&lt;span style=&quot;border-color: var(--border-color); color: rgb(0, 0, 0);&quot;&gt;)&lt;/span&gt;&lt;/div&gt;&lt;div style=&quot;border-color: var(--border-color); color: rgb(0, 0, 0); font-family: Menlo, Monaco, &amp;quot;Courier New&amp;quot;, monospace; font-size: 29px; font-style: normal; font-variant-ligatures: normal; font-variant-caps: normal; font-weight: 400; letter-spacing: normal; orphans: 2; text-align: left; text-indent: 0px; text-transform: none; widows: 2; word-spacing: 0px; -webkit-text-stroke-width: 0px; text-decoration-thickness: initial; text-decoration-style: initial; text-decoration-color: initial;&quot;&gt;&lt;span style=&quot;border-color: var(--border-color); color: rgb(0, 0, 0);&quot;&gt;}&lt;/span&gt;&lt;/div&gt;" style="rounded=0;whiteSpace=wrap;html=1;" parent="1" vertex="1">
          <mxGeometry x="260" y="1180" width="676" height="160" as="geometry" />
        </mxCell>
        <mxCell id="2wR21XXV7mRaW6uMy-59-18" value="0x20000" style="text;html=1;strokeColor=none;fillColor=none;align=left;verticalAlign=middle;whiteSpace=wrap;rounded=0;fontStyle=1;fontSize=21;" parent="1" vertex="1">
          <mxGeometry x="260" y="1140" width="120" height="30" as="geometry" />
        </mxCell>
        <mxCell id="2wR21XXV7mRaW6uMy-59-19" value="object of type Function" style="text;html=1;strokeColor=none;fillColor=none;align=left;verticalAlign=middle;whiteSpace=wrap;rounded=0;fontStyle=1;fontSize=21;" parent="1" vertex="1">
          <mxGeometry x="260" y="1350" width="250" height="30" as="geometry" />
        </mxCell>
        <mxCell id="2wR21XXV7mRaW6uMy-59-20" style="edgeStyle=orthogonalEdgeStyle;rounded=0;orthogonalLoop=1;jettySize=auto;html=1;entryX=0;entryY=0.5;entryDx=0;entryDy=0;" parent="1" source="2wR21XXV7mRaW6uMy-59-21" target="2wR21XXV7mRaW6uMy-59-17" edge="1">
          <mxGeometry relative="1" as="geometry" />
        </mxCell>
        <mxCell id="2wR21XXV7mRaW6uMy-59-21" value="0x20000" style="rounded=0;whiteSpace=wrap;html=1;fillColor=#d5e8d4;strokeColor=#82b366;fontStyle=1;fontSize=16;" parent="1" vertex="1">
          <mxGeometry x="70" y="1230" width="120" height="60" as="geometry" />
        </mxCell>
        <mxCell id="2wR21XXV7mRaW6uMy-59-22" value="0x21000" style="text;html=1;strokeColor=none;fillColor=none;align=left;verticalAlign=middle;whiteSpace=wrap;rounded=0;fontStyle=1;fontSize=21;" parent="1" vertex="1">
          <mxGeometry x="70" y="1190" width="120" height="30" as="geometry" />
        </mxCell>
        <mxCell id="2wR21XXV7mRaW6uMy-59-23" value="reference&lt;br&gt;(function2)" style="text;html=1;strokeColor=none;fillColor=none;align=left;verticalAlign=middle;whiteSpace=wrap;rounded=0;fontStyle=1;fontSize=21;" parent="1" vertex="1">
          <mxGeometry x="70" y="1300" width="130" height="50" as="geometry" />
        </mxCell>
      </root>
    </mxGraphModel>
  </diagram>
  <diagram id="i1h5WkGDdfvT7_tjmI3C" name="Page-2">
    <mxGraphModel dx="1242" dy="828" grid="1" gridSize="10" guides="1" tooltips="1" connect="1" arrows="1" fold="1" page="1" pageScale="1" pageWidth="827" pageHeight="1169" math="0" shadow="0">
      <root>
        <mxCell id="0" />
        <mxCell id="1" parent="0" />
        <mxCell id="GdBYWrHMfFZ2nkv_JAd1-1" value="&lt;div style=&quot;color: rgb(0, 0, 0); background-color: rgb(255, 255, 255); font-family: Menlo, Monaco, &amp;quot;Courier New&amp;quot;, monospace; font-weight: normal; font-size: 29px; line-height: 44px;&quot;&gt;&lt;div&gt;&lt;span style=&quot;color: #0000ff;&quot;&gt;const&lt;/span&gt;&lt;span style=&quot;color: #000000;&quot;&gt; &lt;/span&gt;&lt;span style=&quot;color: #0070c1;&quot;&gt;num1&lt;/span&gt;&lt;span style=&quot;color: #000000;&quot;&gt; = &lt;/span&gt;&lt;span style=&quot;color: #098658;&quot;&gt;100&lt;/span&gt;&lt;/div&gt;&lt;/div&gt;" style="text;whiteSpace=wrap;html=1;" parent="1" vertex="1">
          <mxGeometry x="30" y="30" width="310" height="70" as="geometry" />
        </mxCell>
        <mxCell id="WIywaXL1R4Z7UBXrla8E-1" value="100" style="rounded=0;whiteSpace=wrap;html=1;fillColor=#fff2cc;strokeColor=#d6b656;fontStyle=1;fontSize=16;" parent="1" vertex="1">
          <mxGeometry x="30" y="140" width="120" height="60" as="geometry" />
        </mxCell>
        <mxCell id="WIywaXL1R4Z7UBXrla8E-2" value="0x12000" style="text;html=1;strokeColor=none;fillColor=none;align=left;verticalAlign=middle;whiteSpace=wrap;rounded=0;fontStyle=1;fontSize=21;" parent="1" vertex="1">
          <mxGeometry x="30" y="100" width="120" height="30" as="geometry" />
        </mxCell>
        <mxCell id="WIywaXL1R4Z7UBXrla8E-3" value="num1" style="text;html=1;strokeColor=none;fillColor=none;align=left;verticalAlign=middle;whiteSpace=wrap;rounded=0;fontStyle=1;fontSize=21;" parent="1" vertex="1">
          <mxGeometry x="30" y="200" width="130" height="40" as="geometry" />
        </mxCell>
        <mxCell id="WIywaXL1R4Z7UBXrla8E-4" value="&lt;div style=&quot;color: rgb(0, 0, 0); background-color: rgb(255, 255, 255); font-family: Menlo, Monaco, &amp;quot;Courier New&amp;quot;, monospace; font-weight: normal; font-size: 29px; line-height: 44px;&quot;&gt;&lt;div&gt;&lt;span style=&quot;color: #0000ff;&quot;&gt;const&lt;/span&gt;&lt;span style=&quot;color: #000000;&quot;&gt; &lt;/span&gt;&lt;span style=&quot;color: #0070c1;&quot;&gt;num2&lt;/span&gt;&lt;span style=&quot;color: #000000;&quot;&gt; = &lt;/span&gt;&lt;span style=&quot;color: #001080;&quot;&gt;num1&lt;/span&gt;&lt;/div&gt;&lt;/div&gt;" style="text;whiteSpace=wrap;html=1;" parent="1" vertex="1">
          <mxGeometry x="30" y="270" width="330" height="70" as="geometry" />
        </mxCell>
        <mxCell id="WIywaXL1R4Z7UBXrla8E-5" value="100" style="rounded=0;whiteSpace=wrap;html=1;fillColor=#fff2cc;strokeColor=#d6b656;fontStyle=1;fontSize=16;" parent="1" vertex="1">
          <mxGeometry x="30" y="390" width="120" height="60" as="geometry" />
        </mxCell>
        <mxCell id="WIywaXL1R4Z7UBXrla8E-6" value="0x13000" style="text;html=1;strokeColor=none;fillColor=none;align=left;verticalAlign=middle;whiteSpace=wrap;rounded=0;fontStyle=1;fontSize=21;" parent="1" vertex="1">
          <mxGeometry x="30" y="350" width="120" height="30" as="geometry" />
        </mxCell>
        <mxCell id="WIywaXL1R4Z7UBXrla8E-7" value="num2" style="text;html=1;strokeColor=none;fillColor=none;align=left;verticalAlign=middle;whiteSpace=wrap;rounded=0;fontStyle=1;fontSize=21;" parent="1" vertex="1">
          <mxGeometry x="30" y="450" width="130" height="40" as="geometry" />
        </mxCell>
        <mxCell id="WIywaXL1R4Z7UBXrla8E-8" value="&lt;div style=&quot;color: rgb(0, 0, 0); background-color: rgb(255, 255, 255); font-family: Menlo, Monaco, &amp;quot;Courier New&amp;quot;, monospace; font-weight: normal; font-size: 29px; line-height: 44px;&quot;&gt;&lt;div&gt;&lt;span style=&quot;color: #001080;&quot;&gt;num1&lt;/span&gt;&lt;span style=&quot;color: #000000;&quot;&gt; = &lt;/span&gt;&lt;span style=&quot;color: #098658;&quot;&gt;200&lt;/span&gt;&lt;/div&gt;&lt;/div&gt;" style="text;whiteSpace=wrap;html=1;" parent="1" vertex="1">
          <mxGeometry x="540" y="30" width="210" height="70" as="geometry" />
        </mxCell>
        <mxCell id="WIywaXL1R4Z7UBXrla8E-9" value="200" style="rounded=0;whiteSpace=wrap;html=1;fillColor=#fff2cc;strokeColor=#d6b656;fontStyle=1;fontSize=16;" parent="1" vertex="1">
          <mxGeometry x="540" y="140" width="120" height="60" as="geometry" />
        </mxCell>
        <mxCell id="WIywaXL1R4Z7UBXrla8E-10" value="0x12000" style="text;html=1;strokeColor=none;fillColor=none;align=left;verticalAlign=middle;whiteSpace=wrap;rounded=0;fontStyle=1;fontSize=21;" parent="1" vertex="1">
          <mxGeometry x="540" y="100" width="120" height="30" as="geometry" />
        </mxCell>
        <mxCell id="WIywaXL1R4Z7UBXrla8E-11" value="num1" style="text;html=1;strokeColor=none;fillColor=none;align=left;verticalAlign=middle;whiteSpace=wrap;rounded=0;fontStyle=1;fontSize=21;" parent="1" vertex="1">
          <mxGeometry x="540" y="200" width="130" height="40" as="geometry" />
        </mxCell>
      </root>
    </mxGraphModel>
  </diagram>
  <diagram id="G9omDhytvYJNI7ln1ZZh" name="Page-3">
    <mxGraphModel dx="1242" dy="828" grid="1" gridSize="10" guides="1" tooltips="1" connect="1" arrows="1" fold="1" page="1" pageScale="1" pageWidth="827" pageHeight="1169" math="0" shadow="0">
      <root>
        <mxCell id="0" />
        <mxCell id="1" parent="0" />
        <mxCell id="PvSj5BQMhoqr01Ze6tw5-1" value="&lt;div style=&quot;color: rgb(0, 0, 0); background-color: rgb(255, 255, 255); font-family: Menlo, Monaco, &amp;quot;Courier New&amp;quot;, monospace; font-weight: normal; font-size: 29px; line-height: 44px;&quot;&gt;&lt;div&gt;&lt;span style=&quot;color: #0000ff;&quot;&gt;const&lt;/span&gt;&lt;span style=&quot;color: #000000;&quot;&gt; &lt;/span&gt;&lt;span style=&quot;color: #795e26;&quot;&gt;function2&lt;/span&gt;&lt;span style=&quot;color: #000000;&quot;&gt; = &lt;/span&gt;&lt;span style=&quot;color: #0000ff;&quot;&gt;function&lt;/span&gt;&lt;span style=&quot;color: #000000;&quot;&gt; () {&lt;/span&gt;&lt;/div&gt;&lt;div&gt;&lt;span style=&quot;color: #000000;&quot;&gt;        &lt;/span&gt;&lt;span style=&quot;color: #001080;&quot;&gt;&lt;span style=&quot;white-space: pre;&quot;&gt;&#x9;&lt;/span&gt;console&lt;/span&gt;&lt;span style=&quot;color: #000000;&quot;&gt;.&lt;/span&gt;&lt;span style=&quot;color: #795e26;&quot;&gt;log&lt;/span&gt;&lt;span style=&quot;color: #000000;&quot;&gt;(&lt;/span&gt;&lt;span style=&quot;color: #a31515;&quot;&gt;`inside function2`&lt;/span&gt;&lt;span style=&quot;color: #000000;&quot;&gt;)&lt;/span&gt;&lt;/div&gt;&lt;div&gt;&lt;span style=&quot;color: #000000;&quot;&gt;      }&lt;/span&gt;&lt;/div&gt;&lt;/div&gt;" style="text;whiteSpace=wrap;html=1;" parent="1" vertex="1">
          <mxGeometry x="70" y="290" width="760" height="140" as="geometry" />
        </mxCell>
        <mxCell id="PvSj5BQMhoqr01Ze6tw5-2" value="&lt;div style=&quot;border-color: var(--border-color); color: rgb(0, 0, 0); font-family: Menlo, Monaco, &amp;quot;Courier New&amp;quot;, monospace; font-size: 29px; font-style: normal; font-variant-ligatures: normal; font-variant-caps: normal; font-weight: 400; letter-spacing: normal; orphans: 2; text-align: left; text-indent: 0px; text-transform: none; widows: 2; word-spacing: 0px; -webkit-text-stroke-width: 0px; text-decoration-thickness: initial; text-decoration-style: initial; text-decoration-color: initial;&quot;&gt;&lt;span style=&quot;border-color: var(--border-color); color: rgb(0, 0, 0);&quot;&gt;{&lt;/span&gt;&lt;/div&gt;&lt;div style=&quot;border-color: var(--border-color); color: rgb(0, 0, 0); font-family: Menlo, Monaco, &amp;quot;Courier New&amp;quot;, monospace; font-size: 29px; font-style: normal; font-variant-ligatures: normal; font-variant-caps: normal; font-weight: 400; letter-spacing: normal; orphans: 2; text-align: left; text-indent: 0px; text-transform: none; widows: 2; word-spacing: 0px; -webkit-text-stroke-width: 0px; text-decoration-thickness: initial; text-decoration-style: initial; text-decoration-color: initial;&quot;&gt;&lt;span style=&quot;border-color: var(--border-color); color: rgb(0, 0, 0);&quot;&gt;&lt;/span&gt;&lt;span style=&quot;border-color: var(--border-color); color: rgb(0, 16, 128);&quot;&gt;&amp;nbsp; &amp;nbsp; &amp;nbsp;console&lt;/span&gt;&lt;span style=&quot;border-color: var(--border-color); color: rgb(0, 0, 0);&quot;&gt;.&lt;/span&gt;&lt;span style=&quot;border-color: var(--border-color); color: rgb(121, 94, 38);&quot;&gt;log&lt;/span&gt;&lt;span style=&quot;border-color: var(--border-color); color: rgb(0, 0, 0);&quot;&gt;(&lt;/span&gt;&lt;span style=&quot;border-color: var(--border-color); color: rgb(163, 21, 21);&quot;&gt;&#39;inside function2&#39;&lt;/span&gt;&lt;span style=&quot;border-color: var(--border-color); color: rgb(0, 0, 0);&quot;&gt;)&lt;/span&gt;&lt;/div&gt;&lt;div style=&quot;border-color: var(--border-color); color: rgb(0, 0, 0); font-family: Menlo, Monaco, &amp;quot;Courier New&amp;quot;, monospace; font-size: 29px; font-style: normal; font-variant-ligatures: normal; font-variant-caps: normal; font-weight: 400; letter-spacing: normal; orphans: 2; text-align: left; text-indent: 0px; text-transform: none; widows: 2; word-spacing: 0px; -webkit-text-stroke-width: 0px; text-decoration-thickness: initial; text-decoration-style: initial; text-decoration-color: initial;&quot;&gt;&lt;span style=&quot;border-color: var(--border-color); color: rgb(0, 0, 0);&quot;&gt;}&lt;/span&gt;&lt;/div&gt;" style="rounded=0;whiteSpace=wrap;html=1;" parent="1" vertex="1">
          <mxGeometry x="370" y="690" width="676" height="160" as="geometry" />
        </mxCell>
        <mxCell id="PvSj5BQMhoqr01Ze6tw5-3" value="0x20000" style="text;html=1;strokeColor=none;fillColor=none;align=left;verticalAlign=middle;whiteSpace=wrap;rounded=0;fontStyle=1;fontSize=21;" parent="1" vertex="1">
          <mxGeometry x="370" y="650" width="120" height="30" as="geometry" />
        </mxCell>
        <mxCell id="PvSj5BQMhoqr01Ze6tw5-4" value="object of type Function" style="text;html=1;strokeColor=none;fillColor=none;align=left;verticalAlign=middle;whiteSpace=wrap;rounded=0;fontStyle=1;fontSize=21;" parent="1" vertex="1">
          <mxGeometry x="370" y="860" width="250" height="30" as="geometry" />
        </mxCell>
        <mxCell id="PvSj5BQMhoqr01Ze6tw5-5" style="edgeStyle=orthogonalEdgeStyle;rounded=0;orthogonalLoop=1;jettySize=auto;html=1;entryX=0;entryY=0.5;entryDx=0;entryDy=0;" parent="1" source="PvSj5BQMhoqr01Ze6tw5-6" target="PvSj5BQMhoqr01Ze6tw5-2" edge="1">
          <mxGeometry relative="1" as="geometry" />
        </mxCell>
        <mxCell id="PvSj5BQMhoqr01Ze6tw5-6" value="0x20000" style="rounded=0;whiteSpace=wrap;html=1;fillColor=#d5e8d4;strokeColor=#82b366;fontStyle=1;fontSize=16;" parent="1" vertex="1">
          <mxGeometry x="60" y="560" width="120" height="60" as="geometry" />
        </mxCell>
        <mxCell id="PvSj5BQMhoqr01Ze6tw5-7" value="0x21000" style="text;html=1;strokeColor=none;fillColor=none;align=left;verticalAlign=middle;whiteSpace=wrap;rounded=0;fontStyle=1;fontSize=21;" parent="1" vertex="1">
          <mxGeometry x="60" y="520" width="120" height="30" as="geometry" />
        </mxCell>
        <mxCell id="PvSj5BQMhoqr01Ze6tw5-8" value="reference&lt;br&gt;(function2)" style="text;html=1;strokeColor=none;fillColor=none;align=left;verticalAlign=middle;whiteSpace=wrap;rounded=0;fontStyle=1;fontSize=21;" parent="1" vertex="1">
          <mxGeometry x="60" y="630" width="130" height="50" as="geometry" />
        </mxCell>
        <mxCell id="kRbmC0MHBMKuAucgV2xT-1" value="&lt;div style=&quot;color: rgb(0, 0, 0); background-color: rgb(255, 255, 255); font-family: Menlo, Monaco, &amp;quot;Courier New&amp;quot;, monospace; font-weight: normal; font-size: 29px; line-height: 44px;&quot;&gt;&lt;div&gt;&lt;span style=&quot;color: #0000ff;&quot;&gt;const&lt;/span&gt;&lt;span style=&quot;color: #000000;&quot;&gt; &lt;/span&gt;&lt;span style=&quot;color: #795e26;&quot;&gt;myFunction2&lt;/span&gt;&lt;span style=&quot;color: #000000;&quot;&gt; = &lt;/span&gt;&lt;span style=&quot;color: #795e26;&quot;&gt;function2&lt;/span&gt;&lt;/div&gt;&lt;/div&gt;" style="text;whiteSpace=wrap;html=1;" parent="1" vertex="1">
          <mxGeometry x="70" y="1160" width="560" height="70" as="geometry" />
        </mxCell>
        <mxCell id="4tIqUmUkHNyrU9mPYKEU-1" style="edgeStyle=orthogonalEdgeStyle;rounded=0;orthogonalLoop=1;jettySize=auto;html=1;entryX=0;entryY=0.5;entryDx=0;entryDy=0;" parent="1" source="kRbmC0MHBMKuAucgV2xT-2" target="PvSj5BQMhoqr01Ze6tw5-2" edge="1">
          <mxGeometry relative="1" as="geometry" />
        </mxCell>
        <mxCell id="kRbmC0MHBMKuAucgV2xT-2" value="0x20000" style="rounded=0;whiteSpace=wrap;html=1;fillColor=#d5e8d4;strokeColor=#82b366;fontStyle=1;fontSize=16;" parent="1" vertex="1">
          <mxGeometry x="60" y="910" width="120" height="60" as="geometry" />
        </mxCell>
        <mxCell id="kRbmC0MHBMKuAucgV2xT-3" value="0x22000" style="text;html=1;strokeColor=none;fillColor=none;align=left;verticalAlign=middle;whiteSpace=wrap;rounded=0;fontStyle=1;fontSize=21;" parent="1" vertex="1">
          <mxGeometry x="60" y="870" width="120" height="30" as="geometry" />
        </mxCell>
        <mxCell id="kRbmC0MHBMKuAucgV2xT-4" value="reference&lt;br&gt;(myFunction2)" style="text;html=1;strokeColor=none;fillColor=none;align=left;verticalAlign=middle;whiteSpace=wrap;rounded=0;fontStyle=1;fontSize=21;" parent="1" vertex="1">
          <mxGeometry x="60" y="980" width="130" height="50" as="geometry" />
        </mxCell>
      </root>
    </mxGraphModel>
  </diagram>
  <diagram id="BMq7RVawsY6Es8WsRC5K" name="Page-4">
    <mxGraphModel dx="1774" dy="1183" grid="1" gridSize="10" guides="1" tooltips="1" connect="1" arrows="1" fold="1" page="1" pageScale="1" pageWidth="827" pageHeight="1169" math="0" shadow="0">
      <root>
        <mxCell id="0" />
        <mxCell id="1" parent="0" />
        <mxCell id="8qPuFq1SeGXRo0ph0Vgn-13" value="" style="rounded=0;whiteSpace=wrap;html=1;fillColor=#dae8fc;strokeColor=#6c8ebf;" vertex="1" parent="1">
          <mxGeometry x="470" y="580" width="230" height="130" as="geometry" />
        </mxCell>
        <mxCell id="8qPuFq1SeGXRo0ph0Vgn-7" value="" style="rounded=0;whiteSpace=wrap;html=1;fillColor=#f5f5f5;fontColor=#333333;strokeColor=#666666;" vertex="1" parent="1">
          <mxGeometry x="470" y="400" width="230" height="130" as="geometry" />
        </mxCell>
        <mxCell id="8qPuFq1SeGXRo0ph0Vgn-3" value="" style="ellipse;whiteSpace=wrap;html=1;aspect=fixed;fontStyle=1;fontSize=17;" vertex="1" parent="1">
          <mxGeometry x="50" y="80" width="180" height="180" as="geometry" />
        </mxCell>
        <mxCell id="8qPuFq1SeGXRo0ph0Vgn-1" value="JS" style="ellipse;whiteSpace=wrap;html=1;aspect=fixed;fontStyle=1;fontSize=17;" vertex="1" parent="1">
          <mxGeometry x="100" y="170" width="80" height="80" as="geometry" />
        </mxCell>
        <mxCell id="8qPuFq1SeGXRo0ph0Vgn-4" value="TypeScript" style="text;html=1;strokeColor=none;fillColor=none;align=center;verticalAlign=middle;whiteSpace=wrap;rounded=0;fontStyle=1;fontSize=17;" vertex="1" parent="1">
          <mxGeometry x="110" y="120" width="60" height="30" as="geometry" />
        </mxCell>
        <mxCell id="8qPuFq1SeGXRo0ph0Vgn-11" style="edgeStyle=orthogonalEdgeStyle;rounded=0;orthogonalLoop=1;jettySize=auto;html=1;" edge="1" parent="1" source="8qPuFq1SeGXRo0ph0Vgn-5" target="8qPuFq1SeGXRo0ph0Vgn-10">
          <mxGeometry relative="1" as="geometry" />
        </mxCell>
        <mxCell id="8qPuFq1SeGXRo0ph0Vgn-5" value="TypeScript" style="rounded=0;whiteSpace=wrap;html=1;fontStyle=1;fontSize=17;fillColor=#d5e8d4;strokeColor=#82b366;" vertex="1" parent="1">
          <mxGeometry x="100" y="540" width="150" height="60" as="geometry" />
        </mxCell>
        <mxCell id="8qPuFq1SeGXRo0ph0Vgn-6" value="JavaScript Engine" style="rounded=0;whiteSpace=wrap;html=1;fontStyle=1;fontSize=15;fillColor=#f8cecc;strokeColor=#b85450;" vertex="1" parent="1">
          <mxGeometry x="490" y="450" width="190" height="60" as="geometry" />
        </mxCell>
        <mxCell id="8qPuFq1SeGXRo0ph0Vgn-8" value="Browser" style="text;html=1;strokeColor=none;fillColor=none;align=center;verticalAlign=middle;whiteSpace=wrap;rounded=0;fontStyle=1;fontSize=17;" vertex="1" parent="1">
          <mxGeometry x="555" y="410" width="60" height="30" as="geometry" />
        </mxCell>
        <mxCell id="8qPuFq1SeGXRo0ph0Vgn-12" style="edgeStyle=orthogonalEdgeStyle;rounded=0;orthogonalLoop=1;jettySize=auto;html=1;entryX=0;entryY=0.5;entryDx=0;entryDy=0;" edge="1" parent="1" source="8qPuFq1SeGXRo0ph0Vgn-10" target="8qPuFq1SeGXRo0ph0Vgn-6">
          <mxGeometry relative="1" as="geometry" />
        </mxCell>
        <mxCell id="8qPuFq1SeGXRo0ph0Vgn-16" style="edgeStyle=orthogonalEdgeStyle;rounded=0;orthogonalLoop=1;jettySize=auto;html=1;entryX=0;entryY=0.5;entryDx=0;entryDy=0;" edge="1" parent="1" source="8qPuFq1SeGXRo0ph0Vgn-10" target="8qPuFq1SeGXRo0ph0Vgn-14">
          <mxGeometry relative="1" as="geometry" />
        </mxCell>
        <mxCell id="8qPuFq1SeGXRo0ph0Vgn-10" value="tsc" style="ellipse;whiteSpace=wrap;html=1;aspect=fixed;fontStyle=1;fontSize=17;fillColor=#d80073;fontColor=#ffffff;strokeColor=#A50040;" vertex="1" parent="1">
          <mxGeometry x="310" y="545" width="50" height="50" as="geometry" />
        </mxCell>
        <mxCell id="8qPuFq1SeGXRo0ph0Vgn-14" value="JavaScript Engine" style="rounded=0;whiteSpace=wrap;html=1;fontStyle=1;fontSize=15;fillColor=#f8cecc;strokeColor=#b85450;" vertex="1" parent="1">
          <mxGeometry x="490" y="630" width="190" height="60" as="geometry" />
        </mxCell>
        <mxCell id="8qPuFq1SeGXRo0ph0Vgn-15" value="NodeJS" style="text;html=1;strokeColor=none;fillColor=none;align=center;verticalAlign=middle;whiteSpace=wrap;rounded=0;fontStyle=1;fontSize=17;" vertex="1" parent="1">
          <mxGeometry x="555" y="590" width="60" height="30" as="geometry" />
        </mxCell>
        <mxCell id="8qPuFq1SeGXRo0ph0Vgn-17" value="transpilation" style="text;html=1;strokeColor=none;fillColor=none;align=center;verticalAlign=middle;whiteSpace=wrap;rounded=0;fontStyle=1" vertex="1" parent="1">
          <mxGeometry x="292.5" y="515" width="85" height="30" as="geometry" />
        </mxCell>
      </root>
    </mxGraphModel>
  </diagram>
  <diagram id="QC82fWh7aCOj9djdgNAX" name="Page-5">
    <mxGraphModel dx="1035" dy="690" grid="1" gridSize="10" guides="1" tooltips="1" connect="1" arrows="1" fold="1" page="1" pageScale="1" pageWidth="827" pageHeight="1169" math="0" shadow="0">
      <root>
        <mxCell id="0" />
        <mxCell id="1" parent="0" />
        <mxCell id="XpN-_isKvJC53_yUWqBT-1" value="&lt;div style=&quot;color: rgb(0, 0, 0); background-color: rgb(255, 255, 255); font-family: Menlo, Monaco, &amp;quot;Courier New&amp;quot;, monospace; font-weight: normal; font-size: 29px; line-height: 44px;&quot;&gt;&lt;div&gt;&lt;span style=&quot;color: #0000ff;&quot;&gt;const&lt;/span&gt;&lt;span style=&quot;color: #000000;&quot;&gt; &lt;/span&gt;&lt;span style=&quot;color: #0070c1;&quot;&gt;person&lt;/span&gt;&lt;span style=&quot;color: #000000;&quot;&gt; = &lt;/span&gt;&lt;span style=&quot;color: #0000ff;&quot;&gt;new&lt;/span&gt;&lt;span style=&quot;color: #000000;&quot;&gt; &lt;/span&gt;&lt;span style=&quot;color: #267f99;&quot;&gt;Object&lt;/span&gt;&lt;span style=&quot;color: #000000;&quot;&gt;()&lt;/span&gt;&lt;/div&gt;&lt;/div&gt;" style="text;whiteSpace=wrap;html=1;" vertex="1" parent="1">
          <mxGeometry x="60" y="60" width="500" height="70" as="geometry" />
        </mxCell>
        <mxCell id="TxV9ObTYzuIORldkNPtm-1" value="&lt;div style=&quot;border-color: var(--border-color); color: rgb(0, 0, 0); font-family: Menlo, Monaco, &amp;quot;Courier New&amp;quot;, monospace; font-size: 29px; font-style: normal; font-variant-ligatures: normal; font-variant-caps: normal; font-weight: 400; letter-spacing: normal; orphans: 2; text-align: left; text-indent: 0px; text-transform: none; widows: 2; word-spacing: 0px; -webkit-text-stroke-width: 0px; text-decoration-thickness: initial; text-decoration-style: initial; text-decoration-color: initial;&quot;&gt;&lt;br&gt;&lt;/div&gt;&lt;div style=&quot;border-color: var(--border-color); color: rgb(0, 0, 0); font-family: Menlo, Monaco, &amp;quot;Courier New&amp;quot;, monospace; font-size: 29px; font-style: normal; font-variant-ligatures: normal; font-variant-caps: normal; font-weight: 400; letter-spacing: normal; orphans: 2; text-align: left; text-indent: 0px; text-transform: none; widows: 2; word-spacing: 0px; -webkit-text-stroke-width: 0px; text-decoration-thickness: initial; text-decoration-style: initial; text-decoration-color: initial;&quot;&gt;&lt;span style=&quot;border-color: var(--border-color); color: rgb(0, 0, 0);&quot;&gt;&lt;/span&gt;&lt;/div&gt;" style="rounded=0;whiteSpace=wrap;html=1;" vertex="1" parent="1">
          <mxGeometry x="250" y="190" width="350" height="160" as="geometry" />
        </mxCell>
        <mxCell id="TxV9ObTYzuIORldkNPtm-2" value="0x20000" style="text;html=1;strokeColor=none;fillColor=none;align=left;verticalAlign=middle;whiteSpace=wrap;rounded=0;fontStyle=1;fontSize=21;" vertex="1" parent="1">
          <mxGeometry x="250" y="150" width="120" height="30" as="geometry" />
        </mxCell>
        <mxCell id="TxV9ObTYzuIORldkNPtm-3" value="object of Type Object" style="text;html=1;strokeColor=none;fillColor=none;align=left;verticalAlign=middle;whiteSpace=wrap;rounded=0;fontStyle=1;fontSize=21;" vertex="1" parent="1">
          <mxGeometry x="250" y="360" width="250" height="30" as="geometry" />
        </mxCell>
        <mxCell id="TxV9ObTYzuIORldkNPtm-4" style="edgeStyle=orthogonalEdgeStyle;rounded=0;orthogonalLoop=1;jettySize=auto;html=1;entryX=0;entryY=0.5;entryDx=0;entryDy=0;" edge="1" parent="1" source="TxV9ObTYzuIORldkNPtm-5" target="TxV9ObTYzuIORldkNPtm-1">
          <mxGeometry relative="1" as="geometry" />
        </mxCell>
        <mxCell id="TxV9ObTYzuIORldkNPtm-5" value="0x20000" style="rounded=0;whiteSpace=wrap;html=1;fillColor=#d5e8d4;strokeColor=#82b366;fontStyle=1;fontSize=16;" vertex="1" parent="1">
          <mxGeometry x="60" y="240" width="120" height="60" as="geometry" />
        </mxCell>
        <mxCell id="TxV9ObTYzuIORldkNPtm-6" value="0x21000" style="text;html=1;strokeColor=none;fillColor=none;align=left;verticalAlign=middle;whiteSpace=wrap;rounded=0;fontStyle=1;fontSize=21;" vertex="1" parent="1">
          <mxGeometry x="60" y="200" width="120" height="30" as="geometry" />
        </mxCell>
        <mxCell id="TxV9ObTYzuIORldkNPtm-7" value="reference&lt;br&gt;(person)" style="text;html=1;strokeColor=none;fillColor=none;align=left;verticalAlign=middle;whiteSpace=wrap;rounded=0;fontStyle=1;fontSize=21;" vertex="1" parent="1">
          <mxGeometry x="60" y="310" width="130" height="50" as="geometry" />
        </mxCell>
      </root>
    </mxGraphModel>
  </diagram>
</mxfile>
